<svg xmlns="http://www.w3.org/2000/svg" version="1.1" xmlns:xlink="http://www.w3.org/1999/xlink" width="22" height="16"><svg width="22" height="16" viewBox="0 0 22 16" fill="none" xmlns="http://www.w3.org/2000/svg">
<path d="M6 4H16V11H6V4Z" fill="#C6005C"></path>
<path d="M21.974 5.715C22.0205 4.28347 21.7062 2.86322 21.06 1.585C20.6284 1.0518 20.0199 0.69098 19.345 0.568C16.5729 0.327323 13.7902 0.229527 11.008 0.275C8.22614 0.22931 5.44378 0.327106 2.672 0.568C2.122 0.67 1.614 0.928 1.206 1.309C0.311 2.139 0.246 3.56 0.111 4.758C-0.0365355 6.91615 -0.0365355 9.08185 0.111 11.24C0.136 11.916 0.237 12.587 0.413 13.24C0.533 13.746 0.775 14.214 1.12 14.603C1.528 15.005 2.048 15.275 2.611 15.378C4.767 15.645 6.94 15.755 9.111 15.706C12.606 15.762 15.684 15.703 19.31 15.43C19.89 15.33 20.425 15.057 20.844 14.646C21.117 14.374 21.324 14.044 21.448 13.68C21.81 12.585 21.988 11.437 21.974 10.284C22.008 9.689 22.008 6.31 21.974 5.714V5.715ZM14.664 7.775L14.66 7.773C13.83 8.233 12.872 8.719 11.862 9.232C10.846 9.747 9.78 10.288 8.741 10.852V4.662C9.728 5.18 10.704 5.689 11.686 6.202C12.666 6.716 13.653 7.236 14.66 7.773L14.672 7.766L14.664 7.775Z" fill="#C6005C"></path>
<path d="M7 5H9V11H7V5Z" fill="#D9D9D9"></path>
<path d="M10 6H12V10H10V6Z" fill="#D9D9D9"></path>
<path d="M13 7H15V9H13V7Z" fill="#D9D9D9"></path>
</svg><style>@media (prefers-color-scheme: light) { :root { filter: none; } }
@media (prefers-color-scheme: dark) { :root { filter: none; } }
</style></svg>