<svg width="24" height="24" viewBox="0 0 24 24" fill="none" xmlns="http://www.w3.org/2000/svg">
  <g clip-path="url(#clip0_96_4316)">
    <g filter="url(#filter0_d_96_4316)">
      <path d="M11.9985 13.2905L7.92555 9.21725C7.78705 9.07892 7.61296 9.00808 7.4033 9.00475C7.1938 9.00158 7.01655 9.07242 6.87155 9.21725C6.72671 9.36225 6.6543 9.53792 6.6543 9.74425C6.6543 9.95058 6.72671 10.1262 6.87155 10.2712L11.3658 14.7655C11.4595 14.859 11.5582 14.925 11.662 14.9635C11.7659 15.002 11.878 15.0213 11.9985 15.0213C12.119 15.0213 12.2312 15.002 12.335 14.9635C12.4389 14.925 12.5376 14.859 12.6313 14.7655L17.1255 10.2712C17.2639 10.1327 17.3347 9.95867 17.338 9.749C17.3412 9.5395 17.2704 9.36225 17.1255 9.21725C16.9805 9.07242 16.8049 9 16.5985 9C16.3922 9 16.2165 9.07242 16.0715 9.21725L11.9985 13.2905Z" style="fill:oklch(92.8% 0.006 264.531); fill-opacity:1;"/>
    </g>
  </g>
  <defs>
    <filter id="filter0_d_96_4316" x="-4" y="0" width="32" height="32" filterUnits="userSpaceOnUse" color-interpolation-filters="sRGB">
      <feFlood flood-opacity="0" result="BackgroundImageFix"/>
      <feColorMatrix in="SourceAlpha" type="matrix" values="0 0 0 0 0 0 0 0 0 0 0 0 0 0 0 0 0 0 127 0" result="hardAlpha"/>
      <feOffset dy="4"/>
      <feGaussianBlur stdDeviation="2"/>
      <feComposite in2="hardAlpha" operator="out"/>
      <feColorMatrix type="matrix" values="0 0 0 0 0 0 0 0 0 0 0 0 0 0 0 0 0 0 0.25 0"/>
      <feBlend mode="normal" in2="BackgroundImageFix" result="effect1_dropShadow_96_4316"/>
      <feBlend mode="normal" in="SourceGraphic" in2="effect1_dropShadow_96_4316" result="shape"/>
    </filter>
    <clipPath id="clip0_96_4316">
      <rect width="24" height="24" style="fill:oklch(92.8% 0.006 264.531);"/>
    </clipPath>
  </defs>
</svg>
