<svg fill="oklch(52.5% 0.223 3.958)" height="200px" width="200px" version="1.1" id="Capa_1"
  xmlns="http://www.w3.org/2000/svg" xmlns:xlink="http://www.w3.org/1999/xlink"
  viewBox="0 0 498.893 498.893" xml:space="preserve" stroke="oklch(52.5% 0.223 3.958)">
  <g id="SVGRepo_bgCarrier" stroke-width="0"></g>
  <g id="SVGRepo_tracerCarrier" stroke-linecap="round" stroke-linejoin="round"></g>
  <g id="SVGRepo_iconCarrier">
    <path d="M472.905,83.935l-55.983,0c-7.732,0-14,6.268-14,14c0,7.732,6.268,14,14,14l29.786,0l-62.669,62.669 
      c-12.44-10.084-26.461-17.747-41.458-22.729c-5.012-15.023-12.712-29.056-22.689-41.396l62.68-62.679l0,29.783 
      c0,7.732,6.268,14,14,14c7.732,0,14-6.268,14-13.999l0.001-55.981c0-11.91-9.69-21.601-21.602-21.603l-55.982,0.001 
      c-7.732,0-14,6.268-14,14c0,7.732,6.268,14,14,14l29.786,0l-62.667,62.666c-23.543-19.101-52.68-29.486-83.416-29.486 
      c-35.445,0-68.77,13.804-93.833,38.867c-15.053,15.053-26.228,33.464-32.628,53.6c-17.164,6.439-33.251,16.55-47.036,30.334 
      c-51.74,51.74-51.74,135.928,0,187.668c20.514,20.513,46.652,33.504,74.933,37.524v30.338H93.018c-7.732,0-14,6.268-14,14 
      s6.268,14,14,14h25.106v17.381c0,7.732,6.268,14,14,14c7.732,0,14-6.268,14-14v-17.381h25.106c7.732,0,14-6.268,14-14 
      s-6.268-14-14-14h-25.106v-29.305c26.611-1.794,51.792-11.458,72.711-27.891c23.927,18.757,52.853,28.141,81.791,28.139 
      c33.978-0.003,67.966-12.938,93.832-38.805c48.396-48.397,51.519-125.181,9.378-177.247l62.67-62.669l-0.001,29.784 
      c0,7.732,6.268,14,14,14c7.732,0,14-6.268,14-14l0.001-55.981C494.506,93.626,484.816,83.935,472.905,83.935z 
      M142.655,119.846c19.776-19.775,46.068-30.666,74.035-30.666c27.967,0,54.259,10.891,74.035,30.666 
      c7.555,7.556,13.873,16.196,18.777,25.568c-2.367-0.156-4.745-0.256-7.134-0.288c-9.712-0.126-19.288,0.792-28.595,2.698 
      c-1.634-2.021-3.371-3.964-5.216-5.81c-28.6-28.6-75.134-28.6-103.733,0c-1.649,1.649-3.195,3.391-4.677,5.183 
      c-12.054-2.116-24.345-2.566-36.499-1.344C128.579,136.314,134.974,127.527,142.655,119.846z 
      M218.819,173.319c-8.711-6.829-18.085-12.413-27.882-16.755c15.983-11.039,37.519-10.654,53.111,1.159 
      C235.137,161.927,226.678,167.146,218.819,173.319z 
      M192.488,230.364c-18.086-20.556-35.87-25.899-55.462-25.899c-0.001,0,0,0-0.001,0 
      c-19.591,0-38.013,7.63-51.866,21.483c-28.598,28.6-28.598,75.134,0.001,103.733c26.231,26.232,67.543,28.384,96.274,6.495 
      c4.622,9.425,10.366,18.293,17.104,26.405c-41.203,30.172-98.37,26.445-135.547-10.731c-40.823-40.823-40.823-107.247,0-148.07 
      c40.823-40.822,107.247-40.823,148.07,0.002c9.451,9.45,17.017,20.671,22.246,32.869 
      C220.255,242.724,203.152,242.058,192.488,230.364z 
      M336.756,250.423c13.482,17.76,12.135,43.261-4.064,59.46c-8.565,8.565-19.954,13.283-32.067,13.282 
      c-10.033,0-19.563-3.245-27.41-9.224c13.509-6.344,26.162-15.082,37.308-26.228C321.377,276.86,330.253,264.202,336.756,250.423z 
      M172.963,250.43c13.189,15.628,33.011,20.919,51.66,17.951c16.099-2.563,32.111-10.812,43.933-22.633 
      c8.566-8.566,19.955-13.283,32.068-13.283c4.353,0,8.609,0.619,12.677,1.797c-5.237,12.506-12.908,23.984-22.578,33.654 
      c-40.823,40.822-107.247,40.823-148.069-0.001c-9.328-9.327-16.818-20.377-22.039-32.39 
      c5.164-2.001,10.703-3.061,16.408-3.06C149.138,232.465,159.743,234.764,172.963,250.43z 
      M98.414,254.044c6.313,12.379,14.564,23.793,24.443,33.671c11.861,11.862,25.431,20.996,39.921,27.419 
      c-17.661,12.198-42.113,10.457-57.82-5.251C89.831,294.755,87.658,271.516,98.414,254.044z 
      M374.66,351.851c-40.823,40.822-107.247,40.822-148.07-0.002c-7.574-7.573-13.903-16.236-18.811-25.633 
      c2.967,0.198,5.939,0.303,8.912,0.303c8.982,0,17.962-0.913,26.794-2.72c1.65,2.046,3.406,4.015,5.274,5.882 
      c13.854,13.855,32.274,21.485,51.867,21.485c0.001,0,0,0,0.001,0c19.591,0,38.013-7.63,51.866-21.483 
      c28.598-28.6,28.598-75.134,0-103.733c-13.854-13.854-32.274-21.484-51.867-21.484c-0.001,0,0,0-0.001,0 
      c-16.262,0-31.708,5.272-44.415,14.982c-4.625-9.419-10.369-18.299-17.093-26.399c41.198-30.149,98.405-26.403,135.543,10.733 
      C415.482,244.604,415.482,311.028,374.66,351.851z"/>
  </g>
</svg>
