<svg width="24" height="24" viewBox="0 0 24 24" fill="none" xmlns="http://www.w3.org/2000/svg">
  <path d="M3.5 17.5992V13.9963C3.5 13.7411 3.58667 13.5273 3.76 13.3548C3.93317 13.1824 4.14783 13.0963 4.404 13.0963H10C10.2562 13.0963 10.4708 13.1825 10.644 13.355C10.8172 13.5277 10.9037 13.7417 10.9037 13.997V17.5997C10.9037 17.8551 10.8172 18.0689 10.644 18.2413C10.4708 18.4137 10.2562 18.5 10 18.5H4.404C4.14783 18.5 3.93317 18.4137 3.76 18.241C3.58667 18.0683 3.5 17.8544 3.5 17.5992ZM13.0962 17.5992V13.9963C13.0962 13.7411 13.1828 13.5273 13.356 13.3548C13.5292 13.1824 13.7438 13.0963 14 13.0963H19.596C19.8522 13.0963 20.0668 13.1825 20.24 13.355C20.4133 13.5277 20.5 13.7417 20.5 13.997V17.5997C20.5 17.8551 20.4133 18.0689 20.24 18.2413C20.0668 18.4137 19.8522 18.5 19.596 18.5H14C13.7438 18.5 13.5292 18.4137 13.356 18.241C13.1828 18.0683 13.0962 17.8544 13.0962 17.5992ZM3.5 10.003V6.40025C3.5 6.14492 3.58667 5.93108 3.76 5.75875C3.93317 5.58625 4.14783 5.5 4.404 5.5H10C10.2562 5.5 10.4708 5.58633 10.644 5.759C10.8172 5.93167 10.9037 6.14558 10.9037 6.40075V10.0038C10.9037 10.2589 10.8172 10.4728 10.644 10.6452C10.4708 10.8176 10.2562 10.9038 10 10.9038H4.404C4.14783 10.9038 3.93317 10.8175 3.76 10.645C3.58667 10.4723 3.5 10.2583 3.5 10.003ZM13.0962 10.003V6.40025C13.0962 6.14492 13.1828 5.93108 13.356 5.75875C13.5292 5.58625 13.7438 5.5 14 5.5H19.596C19.8522 5.5 20.0668 5.58633 20.24 5.759C20.4133 5.93167 20.5 6.14558 20.5 6.40075V10.0038C20.5 10.2589 20.4133 10.4728 20.24 10.6452C20.0668 10.8176 19.8522 10.9038 19.596 10.9038H14C13.7438 10.9038 13.5292 10.8175 13.356 10.645C13.1828 10.4723 13.0962 10.2583 13.0962 10.003ZM5 17H9.404V14.596H5V17ZM14.596 17H19V14.596H14.596V17ZM5 9.404H9.404V7H5V9.404Z" fill="oklch(92.8% 0.006 264.531)" style="fill:oklch(92.8% 0.006 264.531);fill-opacity:1;"/>
</svg>
