<svg width="24" height="24" viewBox="0 0 24 24" fill="none" xmlns="http://www.w3.org/2000/svg">
  <g clip-path="url(#clip0_9_8421)">
    <path fill-rule="evenodd" clip-rule="evenodd" 
      d="M16 16.93C18.391 15.547 20 12.961 20 10C20 5.582 16.418 2 12 2C7.582 2 4 5.582 4 10C4 12.961 5.609 15.546 8 16.93V19H16V16.93ZM16 20V20.5C16 21.052 15.552 21.5 15 21.5H13.937C13.913 21.59 13.884 21.679 13.847 21.765C13.747 22.008 13.6 22.228 13.414 22.415C13.229 22.6 13.008 22.747 12.765 22.848C12.523 22.948 12.263 23 12 23C11.737 23 11.477 22.948 11.235 22.848C10.992 22.748 10.772 22.6 10.585 22.414C10.4 22.228 10.253 22.008 10.152 21.765C10.116 21.679 10.087 21.59 10.064 21.5H9C8.448 21.5 8 21.052 8 20.5V20H16Z" 
      fill="oklch(52.5% 0.223 3.958)" 
      style="fill:oklch(52.5% 0.223 3.958);fill-opacity:1;" />
  </g>
  <defs>
    <clipPath id="clip0_9_8421">
      <rect width="24" height="24" 
        fill="oklch(52.5% 0.223 3.958)" 
        style="fill:oklch(52.5% 0.223 3.958);fill-opacity:1;" />
    </clipPath>
  </defs>
</svg>
