<svg xmlns="http://www.w3.org/2000/svg" viewBox="0 0 100 125" x="0px" y="0px">
  <path fill="oklch(52.5% 0.223 3.958)" d="m72.97,56.78l-15.81-6.9c-3.82-1.67-6.87-4.72-8.54-8.54l-6.9-15.81c-.54-1.23-2.27-1.23-2.81,0l-6.9,15.81c-1.67,3.82-4.72,6.87-8.54,8.54l-15.84,6.91c-1.22.53-1.23,2.27,0,2.81l16.11,7.12c3.81,1.69,6.85,4.75,8.5,8.58l6.68,15.51c.53,1.23,2.28,1.24,2.81,0l6.89-15.79c1.67-3.82,4.72-6.87,8.54-8.54l15.81-6.9c1.23-.54,1.23-2.27,0-2.81Z"/>
  <path fill="oklch(52.5% 0.223 3.958)" d="m92.76,26.84l-9.14-3.99c-2.21-.96-3.97-2.73-4.93-4.93l-3.99-9.14c-.31-.71-1.31-.71-1.62,0l-3.99,9.14c-.96,2.21-2.73,3.97-4.93,4.93l-9.15,3.99c-.71.31-.71,1.31,0,1.62l9.31,4.12c2.2.97,3.96,2.75,4.91,4.96l3.86,8.96c.31.71,1.32.71,1.63,0l3.98-9.12c.96-2.21,2.73-3.97,4.93-4.93l9.14-3.99c.71-.31.71-1.31,0-1.62Z"/>
</svg>
