<svg width="24" height="24" viewBox="0 0 24 24" fill="none" xmlns="http://www.w3.org/2000/svg">
  <g clip-path="url(#clip0_9_8379)">
    <path fill-rule="evenodd" clip-rule="evenodd" d="M14.5 15.8423L15.249 15.4083C17.196 14.2823 18.5 12.1813 18.5 9.77734C18.5 6.18734 15.59 3.27734 12 3.27734C8.41 3.27734 5.5 6.18734 5.5 9.77734C5.5 12.1813 6.804 14.2823 8.751 15.4083L9.5 15.8423V17.2773H14.5V15.8423ZM16 16.7073C18.391 15.3243 20 12.7383 20 9.77734C20 5.35934 16.418 1.77734 12 1.77734C7.582 1.77734 4 5.35934 4 9.77734C4 12.7383 5.609 15.3233 8 16.7073V18.7773H16V16.7073ZM16 19.7773V20.2773C16 20.8293 15.552 21.2773 15 21.2773H13.937C13.913 21.3673 13.884 21.4563 13.847 21.5423C13.747 21.7853 13.6 22.0053 13.414 22.1923C13.229 22.3773 13.008 22.5243 12.765 22.6253C12.523 22.7253 12.263 22.7773 12 22.7773C11.737 22.7773 11.477 22.7253 11.235 22.6253C10.992 22.5253 10.772 22.3773 10.585 22.1913C10.4 22.0053 10.253 21.7853 10.152 21.5423C10.116 21.4563 10.087 21.3673 10.064 21.2773H9C8.448 21.2773 8 20.8293 8 20.2773V19.7773H16Z" fill="oklch(92.8% 0.006 264.531)" style="fill:oklch(92.8% 0.006 264.531);fill-opacity:1;"/>
  </g>
  <defs>
    <clipPath id="clip0_9_8379">
      <rect width="24" height="24" fill="oklch(92.8% 0.006 264.531)" style="fill:oklch(92.8% 0.006 264.531);fill-opacity:1;"/>
    </clipPath>
  </defs>
</svg>
