<svg xmlns="http://www.w3.org/2000/svg" viewBox="0 0 100 125" x="0px" y="0px">
  <path fill="oklch(92.8% 0.006 264.531)" stroke="oklch(92.8% 0.006 264.531)" stroke-width="3" d="m73.57,55.41l-15.82-6.9c-3.48-1.52-6.24-4.28-7.76-7.77l-6.9-15.81c-.49-1.12-1.56-1.82-2.78-1.82s-2.29.7-2.78,1.82l-6.9,15.81c-1.52,3.49-4.28,6.25-7.77,7.77l-15.83,6.91c-1.12.49-1.82,1.55-1.82,2.77s.69,2.29,1.8,2.78l16.12,7.13c3.47,1.53,6.22,4.3,7.72,7.8l6.68,15.51c.49,1.13,1.55,1.83,2.78,1.84h.01c1.22,0,2.29-.7,2.78-1.82l6.89-15.8c1.52-3.48,4.28-6.24,7.76-7.76l15.82-6.9c1.12-.49,1.82-1.56,1.82-2.78s-.7-2.29-1.82-2.78Zm-1.2,2.81l-15.82,6.9c-4.18,1.82-7.49,5.13-9.31,9.31l-6.95,15.8-6.68-15.52c-1.81-4.19-5.1-7.51-9.27-9.36l-16.11-7.18,15.83-6.91c4.18-1.83,7.49-5.13,9.32-9.32l6.96-15.81,6.9,15.81c1.82,4.19,5.13,7.49,9.31,9.32l15.84,6.95s-.01,0-.02.01Z"/>
  <path fill="oklch(92.8% 0.006 264.531)" stroke="oklch(92.8% 0.006 264.531)" stroke-width="3" d="m93.36,25.47l-9.14-3.99c-1.86-.81-3.34-2.29-4.15-4.16l-3.99-9.13c-.38-.87-1.24-1.44-2.19-1.44s-1.81.57-2.18,1.44l-3.99,9.13c-.82,1.87-2.29,3.35-4.16,4.16l-9.15,3.99c-.87.38-1.43,1.24-1.43,2.18s.56,1.81,1.42,2.19l9.31,4.12c1.86.82,3.33,2.3,4.14,4.18l3.86,8.96c.37.87,1.23,1.44,2.18,1.44h.01c.95,0,1.8-.56,2.18-1.43l3.99-9.12c.81-1.87,2.29-3.35,4.15-4.16l9.14-3.99c.87-.38,1.43-1.24,1.43-2.19s-.56-1.8-1.43-2.18Zm-10.34,5.61c-2.56,1.12-4.59,3.14-5.7,5.71l-3.42,7.82-3.3-7.66c-1.1-2.57-3.12-4.61-5.68-5.74l-8.03-3.55,7.87-3.43c2.56-1.12,4.59-3.15,5.71-5.71l3.42-7.84,3.43,7.84c1.11,2.57,3.14,4.59,5.7,5.71l7.85,3.42-7.85,3.43Z"/>
</svg>
