<svg fill="oklch(92.8% 0.006 264.531)" version="1.1" id="Capa_1" xmlns="http://www.w3.org/2000/svg" xmlns:xlink="http://www.w3.org/1999/xlink" viewBox="0 0 52.857 52.857" xml:space="preserve" stroke="oklch(92.8% 0.006 264.531)">
  <g id="SVGRepo_bgCarrier" stroke-width="0"></g>
  <g id="SVGRepo_tracerCarrier" stroke-linecap="round" stroke-linejoin="round"></g>
  <g id="SVGRepo_iconCarrier">
    <g>
      <path d="M43.021,16.593C43.021,7.444,35.579,0,26.43,0C17.28,0,9.836,7.443,9.836,16.593c0,8.425,6.316,15.387,14.459,16.438 v10.109h-4.213c-1.178,0-2.133,0.955-2.133,2.133s0.955,2.133,2.133,2.133h4.213v3.318c0,1.178,0.955,2.133,2.135,2.133 c1.177,0,2.132-0.955,2.132-2.133v-3.318h4.213c1.181,0,2.136-0.955,2.136-2.133s-0.955-2.133-2.136-2.133h-4.213V33.031 C36.706,31.979,43.021,25.018,43.021,16.593z M14.104,16.593c0-6.797,5.529-12.326,12.326-12.326 c6.794,0,12.326,5.529,12.326,12.326c0,6.797-5.531,12.326-12.326,12.326C19.633,28.919,14.104,23.39,14.104,16.593z"/>
    </g>
  </g>
</svg>
