<svg height="200px" width="200px" version="1.1" id="Layer_1" xmlns="http://www.w3.org/2000/svg" xmlns:xlink="http://www.w3.org/1999/xlink" viewBox="0 0 512 512" xml:space="preserve" fill="oklch(92.8% 0.006 264.531)" stroke="oklch(92.8% 0.006 264.531)">
  <g id="SVGRepo_bgCarrier" stroke-width="0"></g>
  <g id="SVGRepo_tracerCarrier" stroke-linecap="round" stroke-linejoin="round"></g>
  <g id="SVGRepo_iconCarrier">
    <circle cx="224.642" cy="194.849" r="118.143"></circle>
    <g>
      <path d="M224.649,326.727c-72.716,0-131.875-59.159-131.875-131.875S151.934,62.977,224.649,62.977 c72.717,0,131.876,59.158,131.876,131.875S297.365,326.727,224.649,326.727z M224.649,90.436 c-57.576,0-104.416,46.841-104.416,104.416c0,57.576,46.84,104.416,104.416,104.416s104.417-46.841,104.417-104.416 C329.065,137.276,282.224,90.436,224.649,90.436z"></path>
      <path d="M468.472,4.009h-74.667c-7.581,0-13.73,6.147-13.73,13.73s6.148,13.73,13.73,13.73h41.554 l-51.288,51.368C347.798,31.349,288.224,0,224.649,0C117.208,0,29.799,87.41,29.799,194.851 c0,102.826,80.062,187.291,181.121,194.361v75.912l-29.359-29.359c-5.361-5.361-14.052-5.361-19.418,0 c-5.361,5.361-5.361,14.055,0,19.416l52.797,52.798c2.576,2.574,6.067,4.021,9.708,4.021c3.641,0,7.132-1.447,9.708-4.021 l52.798-52.798c5.361-5.361,5.361-14.055,0-19.416c-5.361-5.361-14.052-5.361-19.418,0l-29.361,29.361v-75.912 c101.059-7.069,181.123-91.536,181.123-194.361c0-7.583-6.148-13.73-13.73-13.73s-13.73,6.147-13.73,13.73 c0,92.301-75.092,167.392-167.393,167.392S57.258,287.152,57.258,194.851S132.348,27.459,224.649,27.459 c59.719,0,115.35,32.189,145.18,84.007c0.055,0.093,0.118,0.178,0.174,0.27c0.143,0.236,0.291,0.47,0.45,0.697 c0.125,0.181,0.257,0.354,0.389,0.527c0.135,0.174,0.27,0.349,0.415,0.519c0.177,0.21,0.361,0.409,0.549,0.607 c0.077,0.081,0.143,0.166,0.222,0.246c0.048,0.048,0.102,0.088,0.15,0.136c0.207,0.202,0.423,0.393,0.641,0.579 c0.135,0.115,0.269,0.231,0.406,0.34c0.203,0.161,0.413,0.31,0.623,0.457c0.17,0.119,0.339,0.239,0.512,0.35 c0.181,0.115,0.368,0.221,0.555,0.328c0.211,0.121,0.421,0.242,0.638,0.35c0.161,0.081,0.324,0.152,0.487,0.227 c0.246,0.111,0.49,0.222,0.741,0.319c0.152,0.059,0.309,0.108,0.463,0.162c0.261,0.091,0.522,0.178,0.788,0.253 c0.166,0.047,0.334,0.082,0.501,0.122c0.255,0.06,0.509,0.122,0.767,0.168c0.194,0.034,0.389,0.058,0.585,0.084 c0.233,0.032,0.467,0.065,0.7,0.085c0.224,0.019,0.448,0.025,0.673,0.032c0.157,0.005,0.312,0.022,0.468,0.022 c0.054,0,0.106-0.007,0.158-0.007c0.242-0.003,0.483-0.019,0.726-0.034c0.196-0.012,0.394-0.022,0.589-0.043 c0.24-0.026,0.478-0.065,0.717-0.104c0.202-0.033,0.405-0.063,0.605-0.104c0.218-0.045,0.437-0.103,0.654-0.159 c0.224-0.058,0.448-0.115,0.669-0.185c0.187-0.059,0.372-0.128,0.557-0.195c0.25-0.091,0.498-0.184,0.744-0.29 c0.161-0.069,0.317-0.146,0.476-0.221c0.258-0.124,0.515-0.25,0.766-0.391c0.062-0.034,0.126-0.06,0.187-0.096 c0.1-0.058,0.189-0.125,0.287-0.185c0.227-0.139,0.452-0.28,0.671-0.432c0.188-0.13,0.369-0.266,0.549-0.405 c0.168-0.129,0.334-0.259,0.497-0.397c0.217-0.183,0.424-0.373,0.627-0.567c0.077-0.073,0.158-0.136,0.233-0.211l63.3-63.399 v41.489c0,7.583,6.148,13.73,13.73,13.73c7.581,0,13.73-6.147,13.73-13.73V17.739C482.201,10.156,476.055,4.009,468.472,4.009z"></path>
    </g>
  </g>
</svg>
