<svg height="200px" width="200px" version="1.1" id="Layer_1" xmlns="http://www.w3.org/2000/svg" xmlns:xlink="http://www.w3.org/1999/xlink" viewBox="0 0 512 512" xml:space="preserve" fill="oklch(52.5% 0.223 3.958)" stroke="oklch(52.5% 0.223 3.958)">
  <g id="SVGRepo_bgCarrier" stroke-width="0"></g>
  <g id="SVGRepo_tracerCarrier" stroke-linecap="round" stroke-linejoin="round"></g>
  <g id="SVGRepo_iconCarrier">
    <circle style="fill:oklch(52.5% 0.223 3.958);" cx="226.231" cy="196.455" r="119.116"></circle>
    <g>
      <path style="fill:oklch(52.5% 0.223 3.958);" d="M226.228,329.418c-73.315,0-132.962-59.647-132.962-132.962S152.913,63.495,226.228,63.495 S359.19,123.142,359.19,196.456C359.19,269.771,299.543,329.418,226.228,329.418z M226.228,91.18 c-58.049,0-105.276,47.227-105.276,105.276s47.227,105.276,105.276,105.276s105.276-47.227,105.276-105.276 S284.277,91.18,226.228,91.18z"></path>
      <path style="fill:oklch(52.5% 0.223 3.958);" d="M450.154,60.211l28.02-28.02c5.406-5.406,5.406-14.171,0-19.578c-5.407-5.406-14.169-5.406-19.578,0 l-28.02,28.02l-25.785-25.786c-5.406-5.406-14.168-5.406-19.578,0c-5.406,5.406-5.406,14.171,0,19.576L411,60.21l-23.812,23.812 C350.491,31.802,290.329,0,226.228,0C117.901,0,29.772,88.131,29.772,196.456c0,103.672,80.722,188.835,182.614,195.962v38.427 h-36.467c-7.645,0-13.843,6.197-13.843,13.843c0,7.645,6.197,13.843,13.843,13.843h36.467v39.626 c0,7.645,6.197,13.843,13.843,13.843s13.843-6.197,13.843-13.843v-39.626h36.467c7.644,0,13.843-6.197,13.843-13.843 c0-7.645-6.199-13.843-13.843-13.843h-36.467v-38.427c101.89-7.128,182.614-92.29,182.614-195.962 c0-7.645-6.199-13.843-13.843-13.843s-13.843,6.197-13.843,13.843c0,93.061-75.71,168.771-168.771,168.771 S57.457,289.518,57.457,196.456s75.71-168.771,168.771-168.771c60.16,0,116.317,32.627,146.555,85.149 c2.319,4.028,6.357,6.437,10.655,6.859c0.043,0.004,0.086,0.011,0.129,0.015c0.307,0.028,0.616,0.037,0.925,0.044 c0.123,0.003,0.246,0.018,0.37,0.018c0.042,0,0.083-0.006,0.125-0.006c0.183-0.003,0.367-0.017,0.55-0.026 c0.298-0.014,0.594-0.032,0.89-0.065c0.053-0.007,0.105-0.015,0.158-0.022c2.949-0.368,5.801-1.669,8.066-3.934l35.929-35.929 l25.785,25.786c2.703,2.703,6.246,4.055,9.788,4.055c3.542,0,7.085-1.352,9.788-4.055c5.406-5.406,5.406-14.171,0-19.576 L450.154,60.211z"></path>
    </g>
  </g>
</svg>
