<svg width="24" height="24" viewBox="0 0 24 24" fill="none" xmlns="http://www.w3.org/2000/svg">
  <g clip-path="url(#clip0_9_8278)">
    <path fill-rule="evenodd" clip-rule="evenodd" d="M14.813 5.018L14.41 6.5L14 8H19.192C20.018 8 20.801 8.376 21.317 9.022C22.028 9.91 22.111 11.147 21.526 12.123L21 13L21.165 13.413C21.684 14.709 21.489 16.182 20.651 17.298L20.5 17.5V18C20.5 19.657 19.157 21 17.5 21H5C3.895 21 3 20.105 3 19V11C3 9.895 3.895 9 5 9H7V9.282C7 8.448 7.26 7.635 7.745 6.957L12 1L13.1 1.472C14.476 2.062 15.207 3.575 14.813 5.018ZM7 10.5H5C4.724 10.5 4.5 10.724 4.5 11V19C4.5 19.276 4.724 19.5 5 19.5H7V10.5ZM17.5 19.5H8.5V9.282C8.5 8.761 8.663 8.252 8.966 7.829L12.519 2.854C13.201 3.152 13.562 3.905 13.366 4.624L12.553 7.605C12.43 8.056 12.524 8.539 12.808 8.91C13.092 9.282 13.533 9.5 14 9.5H19.192C19.562 9.5 19.914 9.669 20.146 9.959C20.466 10.358 20.503 10.913 20.24 11.352L19.714 12.228C19.473 12.63 19.434 13.122 19.607 13.558L19.772 13.97C20.096 14.78 19.975 15.7 19.452 16.398L19.3 16.6C19.105 16.86 19 17.175 19 17.5V18C19 18.828 18.328 19.5 17.5 19.5Z" fill="oklch(92.8% 0.006 264.531)" style="fill:oklch(92.8% 0.006 264.531);fill-opacity:1;"/>
  </g>
  <defs>
    <clipPath id="clip0_9_8278">
      <rect width="24" height="24" fill="oklch(92.8% 0.006 264.531)" style="fill:oklch(92.8% 0.006 264.531);fill-opacity:1;"/>
    </clipPath>
  </defs>
</svg>
