<svg width="24" height="24" viewBox="0 0 24 24" fill="none" xmlns="http://www.w3.org/2000/svg">
<g clip-path="url(#clip0_92_5607)">
<path d="M5.24805 18.8845C5.03555 18.8845 4.85746 18.8127 4.7138 18.669C4.56996 18.5252 4.49805 18.3469 4.49805 18.1343C4.49805 17.9218 4.56996 17.7437 4.7138 17.6C4.85746 17.4565 5.03555 17.3848 5.24805 17.3848H6.3058V9.923C6.3058 8.57817 6.72088 7.38908 7.55105 6.35575C8.38105 5.32242 9.44671 4.6615 10.748 4.373V3.75C10.748 3.40283 10.8695 3.10767 11.1123 2.8645C11.3551 2.6215 11.65 2.5 11.9968 2.5C12.3438 2.5 12.639 2.6215 12.8825 2.8645C13.1262 3.10767 13.248 3.40283 13.248 3.75V4.373C14.5494 4.6615 15.615 5.32242 16.445 6.35575C17.2752 7.38908 17.6903 8.57817 17.6903 9.923V17.3848H18.748C18.9605 17.3848 19.1386 17.4566 19.2823 17.6003C19.4261 17.7441 19.498 17.9223 19.498 18.135C19.498 18.3475 19.4261 18.5256 19.2823 18.6693C19.1386 18.8128 18.9605 18.8845 18.748 18.8845H5.24805ZM11.9963 21.6923C11.4988 21.6923 11.0735 21.5153 10.7203 21.1613C10.367 20.8073 10.1903 20.3817 10.1903 19.8845H13.8058C13.8058 20.3833 13.6286 20.8093 13.2743 21.1625C12.92 21.5157 12.494 21.6923 11.9963 21.6923ZM7.8058 17.3848H16.1903V9.923C16.1903 8.76533 15.781 7.77725 14.9625 6.95875C14.1439 6.14008 13.1557 5.73075 11.998 5.73075C10.8404 5.73075 9.85221 6.14008 9.03355 6.95875C8.21505 7.77725 7.8058 8.76533 7.8058 9.923V17.3848Z" 
      fill="oklch(92.8% 0.006 264.531)" style="fill:oklch(92.8% 0.006 264.531);fill-opacity:1;"/>
</g>
<defs>
<clipPath id="clip0_92_5607">
<rect width="24" height="24" fill="oklch(92.8% 0.006 264.531)" style="fill:oklch(92.8% 0.006 264.531);fill-opacity:1;" transform="translate(-0.00195312)"/>
</clipPath>
</defs>
</svg>
