<svg width="24" height="24" viewBox="0 0 24 24" fill="none" xmlns="http://www.w3.org/2000/svg">
  <g clip-path="url(#clip0_92_5600)">
    <path 
      d="M9.51759 15.6153C7.80993 15.6153 6.36376 15.023 5.17909 13.8385C3.99459 12.6538 3.40234 11.2077 3.40234 9.50002C3.40234 7.79235 3.99459 6.34618 5.17909 5.16152C6.36376 3.97702 7.80993 3.38477 9.51759 3.38477C11.2253 3.38477 12.6714 3.97702 13.8561 5.16152C15.0406 6.34618 15.6328 7.79235 15.6328 9.50002C15.6328 10.2142 15.513 10.8963 15.2733 11.5463C15.0335 12.1963 14.7136 12.7616 14.3136 13.2423L20.0676 18.9963C20.2061 19.1346 20.2769 19.3086 20.2801 19.5183C20.2833 19.7279 20.2124 19.9052 20.0676 20.05C19.9228 20.1948 19.7471 20.2673 19.5406 20.2673C19.3343 20.2673 19.1587 20.1948 19.0138 20.05L13.2598 14.296C12.7598 14.7088 12.1848 15.0319 11.5348 15.2653C10.8848 15.4986 10.2124 15.6153 9.51759 15.6153ZM9.51759 14.1155C10.8061 14.1155 11.8974 13.6683 12.7916 12.774C13.6859 11.8798 14.1331 10.7885 14.1331 9.50002C14.1331 8.21152 13.6859 7.12018 12.7916 6.22601C11.8974 5.33168 10.8061 4.88452 9.51759 4.88452C8.22909 4.88452 7.13776 5.33168 6.24359 6.22601C5.34926 7.12018 4.90209 8.21152 4.90209 9.50002C4.90209 10.7885 5.34926 11.8798 6.24359 12.774C7.13776 13.6683 8.22909 14.1155 9.51759 14.1155Z" 
      fill="oklch(70.7% 0.022 261.325)" 
      stroke="oklch(70.7% 0.022 261.325)" 
      stroke-width="0.4"
      opacity="1"/>
  </g>
  <defs>
    <clipPath id="clip0_92_5600">
      <rect width="24" height="24" fill="white"/>
    </clipPath>
  </defs>
</svg>
