<svg width="24" height="24" viewBox="0 0 24 24" fill="none" xmlns="http://www.w3.org/2000/svg">
  <g clip-path="url(#clip0_92_5606)">
    <path 
      d="M11.248 12.75V16C11.248 16.2125 11.32 16.3906 11.4638 16.5343C11.6076 16.6781 11.7858 16.75 11.9983 16.75C12.211 16.75 12.389 16.6781 12.5325 16.5343C12.6762 16.3906 12.748 16.2125 12.748 16V12.75H15.998C16.2105 12.75 16.3886 12.6781 16.5323 12.5343C16.6761 12.3904 16.748 12.2122 16.748 11.9998C16.748 11.7871 16.6761 11.609 16.5323 11.4655C16.3886 11.3218 16.2105 11.25 15.998 11.25H12.748V8C12.748 7.7875 12.6761 7.60942 12.5323 7.46575C12.3885 7.32192 12.2103 7.25 11.9978 7.25C11.7851 7.25 11.607 7.32192 11.4635 7.46575C11.3199 7.60942 11.248 7.7875 11.248 8V11.25H7.99805C7.78555 11.25 7.60746 11.3219 7.4638 11.4658C7.31996 11.6096 7.24805 11.7878 7.24805 12.0003C7.24805 12.2129 7.31996 12.391 7.4638 12.5345C7.60746 12.6782 7.78555 12.75 7.99805 12.75H11.248ZM11.9998 21.5C10.6858 21.5 9.45071 21.2507 8.29455 20.752C7.13838 20.2533 6.13271 19.5766 5.27755 18.7218C4.42238 17.8669 3.7453 16.8617 3.2463 15.706C2.74746 14.5503 2.49805 13.3156 2.49805 12.0017C2.49805 10.6877 2.74738 9.45267 3.24605 8.2965C3.74471 7.14033 4.42146 6.13467 5.2763 5.2795C6.13113 4.42433 7.13638 3.74725 8.29205 3.24825C9.44771 2.74942 10.6825 2.5 11.9963 2.5C13.3103 2.5 14.5454 2.74933 15.7015 3.248C16.8577 3.74667 17.8634 4.42342 18.7185 5.27825C19.5737 6.13308 20.2508 7.13833 20.7498 8.294C21.2486 9.44967 21.498 10.6844 21.498 11.9983C21.498 13.3123 21.2487 14.5473 20.75 15.7035C20.2514 16.8597 19.5746 17.8653 18.7198 18.7205C17.865 19.5757 16.8597 20.2528 15.704 20.7518C14.5484 21.2506 13.3136 21.5 11.9998 21.5ZM11.998 20C14.2314 20 16.123 19.225 17.673 17.675C19.223 16.125 19.998 14.2333 19.998 12C19.998 9.76667 19.223 7.875 17.673 6.325C16.123 4.775 14.2314 4 11.998 4C9.76471 4 7.87305 4.775 6.32305 6.325C4.77305 7.875 3.99805 9.76667 3.99805 12C3.99805 14.2333 4.77305 16.125 6.32305 17.675C7.87305 19.225 9.76471 20 11.998 20Z" 
      fill="oklch(92.8% 0.006 264.531)" 
      style="fill:oklch(92.8% 0.006 264.531);fill-opacity:1;"
    />
  </g>
  <defs>
    <clipPath id="clip0_92_5606">
      <rect width="24" height="24" 
        fill="oklch(92.8% 0.006 264.531)" 
        style="fill:oklch(92.8% 0.006 264.531);fill-opacity:1;" 
        transform="translate(-0.00195312)"
      />
    </clipPath>
  </defs>
</svg>
