<svg width="24" height="24" viewBox="0 0 24 24" fill="none" xmlns="http://www.w3.org/2000/svg">
  <path d="M7 8H17V15H7V8Z" fill="oklch(52.5% 0.223 3.958)"/>
  <path d="M22.974 9.715C23.0205 8.28347 22.7062 6.86322 22.06 5.585C21.6284 5.0518 21.0199 4.69098 20.345 4.568C17.5729 4.32732 14.7902 4.22953 12.008 4.275C9.22614 4.22931 6.44378 4.32711 3.672 4.568C3.122 4.67 2.614 4.928 2.206 5.309C1.311 6.139 1.246 7.56 1.111 8.758C0.963464 10.9161 0.963464 13.0819 1.111 15.24C1.136 15.916 1.237 16.587 1.413 17.24C1.533 17.746 1.775 18.214 2.12 18.603C2.528 19.005 3.048 19.275 3.611 19.378C5.767 19.645 7.94 19.755 10.111 19.706C13.606 19.762 16.684 19.703 20.31 19.43C20.89 19.33 21.425 19.057 21.844 18.646C22.117 18.374 22.324 18.044 22.448 17.68C22.81 16.585 22.988 15.437 22.974 14.284C23.008 13.689 23.008 10.31 22.974 9.714V9.715ZM15.664 11.775L15.66 11.773C14.83 12.233 13.872 12.719 12.862 13.232C11.846 13.747 10.78 14.288 9.741 14.852V8.662C10.728 9.18 11.704 9.689 12.686 10.202C13.666 10.716 14.653 11.236 15.66 11.773L15.672 11.766L15.664 11.775Z" fill="oklch(52.5% 0.223 3.958)"/>
  <path d="M8 9H10V15H8V9Z" fill="oklch(92.8% 0.006 264.531)"/>
  <path d="M11 10H13V14H11V10Z" fill="oklch(92.8% 0.006 264.531)"/>
  <path d="M14 11H16V13H14V11Z" fill="oklch(92.8% 0.006 264.531)"/>
</svg>
